<mxfile host="app.diagrams.net" modified="2024-04-08T18:16:44.898Z" agent="Mozilla/5.0 (X11; Linux x86_64) AppleWebKit/537.36 (KHTML, like Gecko) Chrome/123.0.0.0 Safari/537.36" etag="dABM2oeZ_Z3UI1pJakJr" version="24.2.1" type="device">
  <diagram id="daD_qgbcJ0OzSBHF5hyp" name="PÃ¡gina-1">
    <mxGraphModel dx="1988" dy="1146" grid="1" gridSize="10" guides="1" tooltips="1" connect="1" arrows="1" fold="1" page="1" pageScale="1" pageWidth="827" pageHeight="1169" math="0" shadow="0">
      <root>
        <mxCell id="0" />
        <mxCell id="1" parent="0" />
        <mxCell id="FLWYoeOaLyG1L2hz94K1-1" value="&lt;font style=&quot;font-size: 14px;&quot;&gt;BSC rack network 192.168.50.0/24&lt;/font&gt;" style="swimlane;whiteSpace=wrap;html=1;" parent="1" vertex="1">
          <mxGeometry x="40" y="140" width="730" height="240" as="geometry" />
        </mxCell>
        <mxCell id="xW9iUxTTVdb9Al5H1Jdd-14" style="edgeStyle=orthogonalEdgeStyle;rounded=0;orthogonalLoop=1;jettySize=auto;html=1;entryX=0;entryY=0.5;entryDx=0;entryDy=0;endArrow=none;endFill=0;" parent="FLWYoeOaLyG1L2hz94K1-1" target="xW9iUxTTVdb9Al5H1Jdd-2" edge="1">
          <mxGeometry relative="1" as="geometry">
            <mxPoint x="160" y="140" as="sourcePoint" />
          </mxGeometry>
        </mxCell>
        <mxCell id="xW9iUxTTVdb9Al5H1Jdd-16" value="Ethernet" style="edgeLabel;html=1;align=center;verticalAlign=middle;resizable=0;points=[];" parent="xW9iUxTTVdb9Al5H1Jdd-14" vertex="1" connectable="0">
          <mxGeometry x="0.1979" y="-1" relative="1" as="geometry">
            <mxPoint as="offset" />
          </mxGeometry>
        </mxCell>
        <mxCell id="e3eM181CSZWV1wqz1fTE-1" value="Cloud workstation (192.168.50.61)" style="swimlane;whiteSpace=wrap;html=1;startSize=40;" parent="FLWYoeOaLyG1L2hz94K1-1" vertex="1">
          <mxGeometry x="10" y="60" width="150" height="160" as="geometry" />
        </mxCell>
        <mxCell id="xW9iUxTTVdb9Al5H1Jdd-4" value="Open5GS Control plane NFs&lt;div&gt;(Docker 100.0.0.0/24)&lt;/div&gt;" style="rounded=1;whiteSpace=wrap;html=1;" parent="e3eM181CSZWV1wqz1fTE-1" vertex="1">
          <mxGeometry x="15" y="60" width="120" height="60" as="geometry" />
        </mxCell>
        <mxCell id="xW9iUxTTVdb9Al5H1Jdd-15" style="edgeStyle=orthogonalEdgeStyle;rounded=0;orthogonalLoop=1;jettySize=auto;html=1;entryX=1;entryY=0.5;entryDx=0;entryDy=0;endArrow=none;endFill=0;" parent="FLWYoeOaLyG1L2hz94K1-1" target="xW9iUxTTVdb9Al5H1Jdd-2" edge="1">
          <mxGeometry relative="1" as="geometry">
            <mxPoint x="570" y="140" as="sourcePoint" />
          </mxGeometry>
        </mxCell>
        <mxCell id="xW9iUxTTVdb9Al5H1Jdd-18" value="Ethernet" style="edgeLabel;html=1;align=center;verticalAlign=middle;resizable=0;points=[];" parent="xW9iUxTTVdb9Al5H1Jdd-15" vertex="1" connectable="0">
          <mxGeometry x="0.1471" y="-1" relative="1" as="geometry">
            <mxPoint as="offset" />
          </mxGeometry>
        </mxCell>
        <mxCell id="xW9iUxTTVdb9Al5H1Jdd-1" value="Edge Raspberry Pi 5 (192.168.50.82)" style="swimlane;whiteSpace=wrap;html=1;startSize=40;" parent="FLWYoeOaLyG1L2hz94K1-1" vertex="1">
          <mxGeometry x="570" y="60" width="150" height="150" as="geometry" />
        </mxCell>
        <mxCell id="xW9iUxTTVdb9Al5H1Jdd-5" value="Open5GS Edge NFs&lt;div&gt;&lt;span style=&quot;background-color: initial;&quot;&gt;(Docker 100.0.0.0/24)&lt;/span&gt;&lt;/div&gt;" style="rounded=1;whiteSpace=wrap;html=1;" parent="xW9iUxTTVdb9Al5H1Jdd-1" vertex="1">
          <mxGeometry x="15" y="60" width="120" height="60" as="geometry" />
        </mxCell>
        <mxCell id="xW9iUxTTVdb9Al5H1Jdd-2" value="Amarisoft gNB (192.168.50.60)" style="swimlane;whiteSpace=wrap;html=1;startSize=40;" parent="FLWYoeOaLyG1L2hz94K1-1" vertex="1">
          <mxGeometry x="294" y="60" width="160" height="160" as="geometry" />
        </mxCell>
        <mxCell id="xW9iUxTTVdb9Al5H1Jdd-22" value="Amarisoft gNB software" style="rounded=1;whiteSpace=wrap;html=1;" parent="xW9iUxTTVdb9Al5H1Jdd-2" vertex="1">
          <mxGeometry x="20" y="60" width="120" height="60" as="geometry" />
        </mxCell>
        <mxCell id="xW9iUxTTVdb9Al5H1Jdd-21" value="" style="shape=image;verticalLabelPosition=bottom;labelBackgroundColor=default;verticalAlign=top;aspect=fixed;imageAspect=0;image=https://ingun.com/media/CMS%20Media/campaigns/5G/campaign-5G-icon-antenne_M-min.png;clipPath=inset(23.78% 31% 24.67% 31.33%);" parent="1" vertex="1">
          <mxGeometry x="370" y="400" width="87.67" height="90" as="geometry" />
        </mxCell>
        <mxCell id="xW9iUxTTVdb9Al5H1Jdd-24" value="" style="endArrow=none;html=1;rounded=0;entryX=0.5;entryY=1;entryDx=0;entryDy=0;" parent="1" target="xW9iUxTTVdb9Al5H1Jdd-2" edge="1">
          <mxGeometry width="50" height="50" relative="1" as="geometry">
            <mxPoint x="414" y="400" as="sourcePoint" />
            <mxPoint x="440" y="380" as="targetPoint" />
          </mxGeometry>
        </mxCell>
        <mxCell id="xW9iUxTTVdb9Al5H1Jdd-25" value="UE Raspberry Pi 4" style="swimlane;whiteSpace=wrap;html=1;startSize=40;" parent="1" vertex="1">
          <mxGeometry x="74" y="500" width="141" height="135" as="geometry" />
        </mxCell>
        <mxCell id="xW9iUxTTVdb9Al5H1Jdd-26" value="Ubuntu 22.04.3 LTS&lt;div&gt;Interface enxXXXXX&lt;/div&gt;&lt;div&gt;IP given by DHCP&lt;/div&gt;" style="rounded=1;whiteSpace=wrap;html=1;" parent="xW9iUxTTVdb9Al5H1Jdd-25" vertex="1">
          <mxGeometry x="10.5" y="60" width="120" height="60" as="geometry" />
        </mxCell>
        <mxCell id="xW9iUxTTVdb9Al5H1Jdd-29" value="" style="shape=image;verticalLabelPosition=bottom;labelBackgroundColor=default;verticalAlign=top;aspect=fixed;imageAspect=0;image=https://icons.veryicon.com/png/o/miscellaneous/medium-thin-linear-icon/signal-28.png;rotation=15;" parent="1" vertex="1">
          <mxGeometry x="353" y="490" width="60" height="60" as="geometry" />
        </mxCell>
        <mxCell id="xW9iUxTTVdb9Al5H1Jdd-31" value="&lt;span style=&quot;font-weight: 700;&quot;&gt;&lt;font style=&quot;font-size: 14px;&quot;&gt;Quectel RM502Q-AE&lt;/font&gt;&lt;/span&gt;&lt;div style=&quot;font-weight: 700;&quot;&gt;(Cloud 10.0.100.0/24)&lt;/div&gt;&lt;div style=&quot;font-weight: 700;&quot;&gt;(Edge 10.0.101.0/24)&lt;/div&gt;" style="rounded=1;whiteSpace=wrap;html=1;" parent="1" vertex="1">
          <mxGeometry x="282" y="557.5" width="138" height="65" as="geometry" />
        </mxCell>
        <mxCell id="xW9iUxTTVdb9Al5H1Jdd-32" style="edgeStyle=orthogonalEdgeStyle;rounded=0;orthogonalLoop=1;jettySize=auto;html=1;entryX=0;entryY=0.5;entryDx=0;entryDy=0;endArrow=none;endFill=0;" parent="1" edge="1">
          <mxGeometry relative="1" as="geometry">
            <mxPoint x="215" y="589.75" as="sourcePoint" />
            <mxPoint x="283" y="589.75" as="targetPoint" />
          </mxGeometry>
        </mxCell>
        <mxCell id="xW9iUxTTVdb9Al5H1Jdd-34" value="USB" style="edgeLabel;html=1;align=center;verticalAlign=middle;resizable=0;points=[];" parent="xW9iUxTTVdb9Al5H1Jdd-32" vertex="1" connectable="0">
          <mxGeometry x="-0.0618" relative="1" as="geometry">
            <mxPoint x="1" as="offset" />
          </mxGeometry>
        </mxCell>
        <mxCell id="Hc-uTtx_4E3Jcy8ZUbmm-5" value="" style="shape=image;verticalLabelPosition=bottom;labelBackgroundColor=default;verticalAlign=top;aspect=fixed;imageAspect=0;image=data:image/jpeg,/9j/4AAQSkZJRgABAQAAAQABAAD/2wCEAAUFBQUFBQUGBgUICAcICAsKCQkKCxEMDQwNDBEaEBMQEBMQGhcbFhUWGxcpIBwcICkvJyUnLzkzMzlHREddXX0BBQUFBQUFBQYGBQgIBwgICwoJCQoLEQwNDA0MERoQExAQExAaFxsWFRYbFykgHBwgKS8nJScvOTMzOUdER11dff/CABEIAZICGAMBIgACEQEDEQH/xAA3AAEAAgIDAQEAAAAAAAAAAAAABQYDBAIHCAEJAQEAAgMBAQEAAAAAAAAAAAAABAUCAwYBBwj/2gAMAwEAAhADEAAAAPZYAAAAAAAAAABhNPo3F4Gz1+mbV0JJS6b03KeOcuO/3HbvzkrMed+suX8jLVrkfqS/OO3nu15BuR6MdIWw7DRUqAAAAAAAAAAAAAAAAAAAAAAAAKvaKblh5n6a7i67nUN/w/cXZ/GXzHrYbuezH8sJGbqjs/5EtvOu52NdqXsut9XtLDP5/rvU7N241l0lt+05rnO9p/pL86fauefYQy8AAAAAAAAAAAAAAAAAAAAAAU+4U/LX5foN+oFlzV41+WDrPkuPQy6mifi2NHFrmybRyMJLjr4/dW5pfWvbs59bLrkdhdy+dfR3IfVK3Re5eh4d366E2EAAAAAAAAAAAAAAAAAAAAAAp9wp+Wvy/XrFGbqy54bvLeUHSNQ9JUS0g9O6lgrdlWZJCOkPdWXX4mttYNo3eeLYw2Sfonzn3/zX0awdDd9dDVnS+uhNgAAAAAAAAAAAAAAAAAAAAAAKZcqblh5l45MMTX2jwkoangbWXBjlYVvqjv6k9LS9S8+fC/5THz+c3uSQ1ZDH3Pl1kW23vRHm7uzkPpvYXQV0pkWz9di4pQAAAAAAAAAAAAAAAAAAAAAFUtdUy1+X46QiY+nvTQjdupgS2pyjdcqBsFXuljC6RrF6o3bcPh2MGxlq3N3V4w7fLv5rD8w/QGTY48+Y67a0tzT6rhvXQ6/jAAAAAAAAAAAAAAAAAAAAAAFUtdVy1eXoGeg4+js7axQ8Gql89RmNrnPRcrAndedZdk9e9ty+rvcUiFnlNO2/LP0Xm2sOfmutyc+PLTp54NjW6/ivXQ6/igAAAAAAAAAAAAAAAAAAAAAFUtdTy1+YIeYjo2jtGIsULhTVXPgstpXyn3egeU6uhU6fi+35PX4YLpx/1HZ3OHP599a5ZsGTDTnzYeTTkxZ9br+K9djr+KAAAAAAAAAAAAAAAAAAAAAAVS11TLX5g4/dmM73rFh06bCj2W0a03TTaT2L0tZxoXRkcdrS5LTyy/F/0zw580SQOTD7lxfcvNjDlxdbxHrsdfxIAAAAAAAAAAAAAAAAAAAAACqWuqZa/MExDy+rb6E19pAs+HL6y9ZMZlkpVx68gzusuGx8+f8A0jDxz4/fePzlyzfOHLibHz463h/XY63iQAAAAAAAAAAAAAAAAAAAAAFTtlTy1+YZiHl9e70MINsAA6y7GoNZP6/43DLyPX0XHbqvjN1vuXnHlYeeXhhhyxc+HY8X67HW8SAAAAAAAAAAAAAAAAAAAAAAqlrqmWvzBMQ8xhu9CiBbHPY8w08fGl1Oc5H0LDUWd0wVWQjT7fJU3HaVljodmkIln1Qv9CqOmcfrqeV9dDrOJAAAAAAAAAAAAAAAAAAAAAAVS11TLX5gmIaZ17fQuRuwLLHWI5S76tDdhxWnCpYZSGrOoy5NPJlhv/Mex0PN7WKN24VpzlKxt8700Nq9hde9Xy/rsdLyoAAAAAAAAAAAAAAAAAAAAACq2qqZa/MEzC2XDP0XWJHXpZvHBwicI0frb0dzXRR2lJxO6TpSCIqOht3Cs7WqNNRcpo7Fakp3RysdqmW6p9Vx/rwdTzAAAAAAAAAAAAAAAAAAAAAACqWuqZa/L8vD7kbLv7nHxtawaOCR8r4vLE79Rf6eHUUXbbvzTidm+xfI/SYTfKvZ/du5PVfZrJM1S+x+tut4z1+Ov50AAAAAAAAAAAAAAAAAAAAABVLXU89fmDPg56Me46dg+TuPzWerzvFdnswk5W6zoMsPMbm+6htnTxVFzufY/wCvd3HDyctsRX3NHkyNbnoDpOQ9fDp+UAAAAAAAAAAAAAAAAAAAAAAVS11PPX5frtihcoNp3MlSyobhjgtjmu6ts3QZTk+wn/mHnPi6HLdxWNdD6WKLtOZ3lYj7CmvcjSbryX0ubqNnrEyN6+HT86AAAAAAAAAAAAAAAAAAAAAAqlrqmWry9pbkFlCvFWt3Hyn1kntcp9JgNiwb0azot0o98eWfhMrOohvnGu4NLrTuWgT+Ypt9pVlsaafgLLWue+kevh0XOgAAAAAAAAAAAAAAAAAAAAAKna6pnq8vfPu1rwtulZonXT7MbtRdd1E5K6GSqvq12JQ7NHn29iibGqx1W5VyBZSVTsHX0qqip+O2pdbaqhf6DHs/Xw6ShAAAAAAAAAAAAAAAAAAAAAAVO2VPZr8vZsG1CyvmzsYVPgj5uvQL3eyZ/lZfwFvhdiFb2DerM3Or9urbEZnFiYaf1LPn9WcTsCxm+nu9uhp/nr8WkAAAAAAAAAAAAAAAAAAAAAABU7ZU89fl7fj9yP72dXbHiVFSkoqfjSMOWT0qrptOTmPkSzrNi1eOudzrspXui4LW18GX3Cct2hZ4V3P+dO6+lp0b16J2gAAAAAAAAAAAAAAAAAAAAABU7ZVM9flyZhd/Rt7urF7rtVtr0Nu4tldvyGTXh2c7A7e3hPxx2Cv2NNv6KL3wIi8w9q1zJnewV3GRt9ad9dDbJPr4ToYAAAAAAAAAAAAAAAAAAAAACqWuqbNflrd0tyLI7+56uWrtYXBa43Org8uZqjxspk5Yy4jVldCXW1nnK58JNcmOchFtcdizc9+zl0ZLaE6H62EuGAAAAAAAAAAAAAAAAAAAAAAqtqqmevyzo7nnvTt/QpWbXS3uPcq1b26+xo7qmJk1vcnPzlVfdPrzU8V1177+gvz11Mtv6DRXhD5tw9j1Hzbze736DeZf0G36eQAAAAAAAAAAAAAAAAAAAAAAGhvnnjvyL+qfjLPDzQvUvhs6u5d/W48o5PbNpPA3z9IbaflpZv1P2z81Lf78Hi+4eoB0LdOxh8+gAAAAAAAAAAAAAAAAAAAAAAAA4BjzHr6PAAAAAAAAAAAAAAAAAAAH/8QAShAAAQIDAwcGCwYEBQQDAAAAAQIRAAMhBBIxBiIyQVFhcQUTNFBywRAgQlKBgoORobGyFCMzYnPRFUNT8DBEY+HxJHSSohZAVP/aAAgBAQABPwL/AOwuYlArFv5ck2M3NOb/AE06u0YTlHblk3UWZI/MT+8IygtvlSbKvszQPmYRy+vyuTJ3qZ8f/IbCPxETpfaRCOW+S1/5xPppCLbZF6NqlH1hAIOB66JCQSdUcpWxVmsi7R/MWbsvdvgu5f0xK5NmqDzFCXuxMHkoarT70weS5uqag+8R9n5Tl6ExXqzIV/EvKllXaQF/OJil0vyEj1bvygTbuF5PZU0I5StaNG22hPpeEcucopwtr9tEIykt4x+zr+EIynm+VYQeyuJeUcpTvYbQOAeE5Q8mYKmLQfzIMI5W5MXhbpfpLfOEWiRM0J6FcFA9ZWsnmuJjKOsyxSdVB7zFhliZap80iiC44k08V4vHaYUEr0kJPERa7EEDnJWHlJ2QALj0iRZ5loJCNWJ1R/DP9cf+Mfw+amqZqPiI5rlJOE1Z9pBFu1yL3skqhZKfxLIgeqpPyiXbZ8kgyJi5Z3Lce4xyTy79qKZFqYTDorGCv9+sLWWQih0oyg6ZYeKfnHJv4Vo3zfEJh/C8K5PkqU6VFO7GEIRKQEIoB4XLQgxYJyihSLxpX3xOs9ntAadIQviK++OUuT/4epM2WomSotvSdn7RyZa/tljlTTp6K+0Or7Xoy+1HL/S+T/U+ccnfgzv1fFeHh4fxNcNqhIixLuzkfmzfBa5P2my2iT5yC3EVEZLreTakbFIPvH+3V9r0Zfajl/pfJ/qfOOTvwZ/6vhJ8Bh4fwO3geE4wdsJhCrpSrYQfdBxMI0hGSmjbfZd/V9r0Zfajl/pfJ/qfOOSJctVntBWsj73VwhrF50z3wbPIKromLSrYRC7JMGgQvhGsg0MHwPCawfA8DwCNRhBdEs7UiEaSYyUwtvs+/q+16MvtRy/0vk/1PnHI0tK7NaVNVM8GDzISM4i4nNLvGKVHylBthr3QuTLKlMyahOLAHY2yJku+PvkV+IidJMk1qDgYMCBD+BoA8Iiz9HkdgQjSTGSmFt9n39X2yiEdv5xlB0ywep845BP/AE9rB0ee7omJUrOQkM2IFBwhKFi8Rjt+MIW6aJcir7H47YVcKZqLuaaOBtialAo96Wt2pv8AnE2VzamxGo7R4w8LxJDSJA/00wjSTGSmFt9n39X2xKVolhQfPSr3GMoOmWHtJ+qOQ+jWj/uO6EnAsEsc5JH94wlhKRdKtJ94fSDDZCgXKUsAymrhdoPTF8pUkkKdVDTbq9ECcmYhO8D3mLRJvX5eLHMPiiE+AqaEhUzhtg2zUiWAN9YFpmOM6MlcLb7Pv6vtWintRlB02w8U/VHIrmzWkBqT73w3Q+gpJugk6tTQWN5ZCgSp9sEXVV7R2VjM5sG+lNX2RzyUHPUSkuBXDVXdE8MlJMxy9PTwiem7MOxVYbxNUEtCJT1VA8CcRGSuFt9l39X2rRT2hGUHTbDxT9UcjFabPaq0E54KU82xbSdReohBBuaO1x5uqDdJzSL1TA++50O17NNKuR8IEssV3ebZRPm4YAHZBfm8+XcJH96MWoZiXxBbwiBBVqGMS5bYw3hTiIyVwtvs+/q+16Ke1GUHTLDxT9UcjVk2j9eKLzXZw9Rq2wlSVFQSS6qpABGGuEVupClabvtfzodS2XedwK+cmCM9SRnYoN8vT3QAwD0xxGuLSPul7lCCIDwIUpqa4ly2r4qcRGSuFt9n39X2vRT2oyg6bYuKfqjkfo9op/Pb4RcBoSRiXHfE2ZS8VKKim8FJwCh/dYE5V65cCjVLnF9sZxTL+9Og7qALPFBdXqulmLKJVBQh9VS5bXFo/BU48seAQTdESkazA8VOIjJXC2+z7+r7Vop7UZQdNsXaT9UcjdHtJvfziPhCk4Ah1OF44AQSpKucGkkKpil9nGJ/Ni8HvFL+SzV8qLNdKtFiWzT5UJSxlpILYJhVPSMBFp0JSdpKvBSJab6r3ugDxk6QjJXRtvsu/q+1aKe1GUHTLDxT9UciNzc5WsTz8oUmbLSFXipSSx2Nu3xfQsEFQZZJKTS6UiJqFFJVziXWSLiPy7d0SbPcKjS6Dpxd/IMWxgkulI1vXjE5fOTFEYYDgPBVSrvvhCW8THwjERkrhbfZ9/V9r0U9qMoOm2HtJ+qOQiBZLW4Jee1ISqjgEtsI1ftE6zSJucnHE00tUcxdnOtyhmv8Rt3QhCUpBe+H95OuJy7u28zClImnmpZ/qTB8NsMYVEhFLx1/4A0oyVwtvs+/q+1aKe1GUHTbD2k/VHID/ZbU39eACMT6dbRW5xG2HJOHvwhcm+NNSDtTjC7PzKb4RMnKFAIm84VKVMvXji4aKbY5pa/JVd1lqQ3+AnGMlcLb7Pv6vtWintRlB0yw9pP1Rk50a1/r90NFwbIbwudsOdsW9X3AS+Kx8K+L6PEGIjJXC2+z7+r7Vop7UZQdMsPaT9UZOdGtf6/d/gW/GUNxPgbx04iMlcLb7Pv6vteintRlB0yw9pP1Rk50a1/r93+BbfxR2R4m3wthDQMRGSmFt9n39X2vRT2oyg6bYe0n6oyc6Na/1+7x1KSnSUBxiehc6Y8sOGECxTzrAj+Hz/OR8YVYrSPICuBhSVoOehSeI8UM8ZKYW32ff1fatFPajKDplh7SfqjJzo1r/X7vFrsgp1rmMN1I56VLUwl3SdePvhdqKiNQjnJmdtTiIFoUz1Y0gWpWp1boFsT5SaQuz2WdVAuK/L+0TbNMlB9JHnDv8IxEZKYW32ff1fa9FPajKDplh7SfqjJzo1r/AF+7xKDGFzQgoxqRVonrmc25VnPSFYGoLKxGsenVAIc6OBcvF4BQfGjbHgLUWF07GeAau9SKq7ozeObrOuDezQBu/aEzVPXSGuJshEzOSyVbtFUKBSSFBjCcRGSmFt9n39X2rRT2oyg6ZYe0n6jGTnRrX+v3eAB4JSht8HTN6YSB5P7wtajLl56Lqc0q/NhC3vYC7jXW0ZoNVJD1zYwCAomj0f4xVxpAU1PAUkBJGLYPSA5arsYqNED3QCyVi6QKM0Z13Nw1l8YTMY116oUlMwMfQdkFKpa7p/5jJXC2+z7+r7Xop7UZQdMsPaT9UZOdGtf6/dADwaBhGeZqsATrbBtm+AjQlomjSd9Z4xcR55zXx3bIar0fX+0HNdwCDVj8qQtYSUhRumrtg0FJcJHntjuhLLusU9nbCnZaqV+G6GCdZA+AeHDja2uAXu/37jBJe984BumLiZrD3HZGSmjbfZ9/V9r0U9qMoOmWHtJ+qMnOjWv/ALjug5iTC1qzSACkqb0RzJKgp21e/vi8m6hKFJuXmNfTClDUg4gDdAqHwu5vo3wTSgzh7hFXAv0eiQHJgLQk4FCge/bA23y66uauNgaAJbXrpxoU4COaS5ALCj1xjmUNeAOGA18IMohilRIwG7cYNS2sn5QmtHaJKrq23xkpo232ff1fatFPajKDpth4p+qMmej2z9fuhSgtw9NcS1BT3S91V0+iFXklR507RE1QxDPccp3nWYLaSGYd8PRgVNeq5FYN3Or8MdkKQWW73TTfUwoT5YzVBKNbvtajxou+wu4uxzqbr4GL7gsppdLyn/eH/E2sKCOdctTeYmgTHWhdRhWBKBLB6sxhQrLmDyif+fTGSmjbfZ9/V9q0U9qMoOmWHin6oydJFltbB/v6+6CoByrDFzF4DNVU4O9eMc7LuhLqN0HeG272jnHlXwvO2ti2qkB79Ui6SC42xUX8TXDuhRej0LfCPvHwbvMc6UCiRu1Gu6OcvBbrTpg1SDxgLSKJbF31PAmKIGk75za4vqSZgvp3DY3dDovZyGJ14E+iETFA6VW9MX0qqbyVflxg4IF7GrcOEZKaNt9n39X2rRT2oyg6ZYuKfqjkAoTZbUpWAnv8IdV5aqvS6OMTkkykoGIYEA4JMMpiObRmpA4o1w1xJRcDaq41rF5SBeF7HHhqEX0VKXZgCDXDW0TFFSWFQC3/ADF0lT00Xp5XBoAJCbo1B916FKQW14fCkSzfClHDWv8AaPu718qTvG3hClJTedNQ4zRg8YXmSBduuGxYtTdCipgLjPVsYSWut/fGEsWNAE6+6MlNG2+z7+r7Vop7UZQdMsPFP1Rk/wDgT8wqe0MfdrhXOzJhaabqWSW0TtiZaOeWu+Dr9CYeWtN5eGGHph9QYKADUg3dKtDm01wCVKxo3w2PACF3QSQdu5oIAVKTJN2uGsNreGUwF52/4EN92xSKKwNWg5146qcaDVBEpHPukFkMG1vSGAlTbszPzU6k4bIP3iFKuMQSgC9Ue+AokAi8VIxdm9EKlGXeoLu4vjEmhR6IyT0bd6nf1fa9FHajKDpli4p+qOQl83Yras/1tm6L5zJhWVBQvDzqUi+L3Oa0AkFsQ0ATBMDLGiF1+UIXnGij5J/LuEBSFGn5SQNupoIDOoM7uR+XbCSHQDewrdGvGCc0JCizVSiuuEu7NcQFUpnPjEtcy7efdXXrgAkIoxHobjDrTdd+NPTwMeSc9QqG4/vHO3TnqUVsm6wdmxgBQVdQu+SXKUe+NRLEkvCM1adjVfGMlNG2+z7+r7Voo7UZQdMsXFP1RySFfZbQUUPOqvK3BOuHlAy1Ey6g5oGChrMImXSEAgFQTnYY7YBShCgxNCSnABizwmYpc4JKrkzaoY7PfEqZdUlHkhJwGqEteCWAcOhLYa6xntLzj5IB1QQm7nEVx3PCq0vOweu2ClN+6XIUAXFCG1eiL12l++o68b0ZwQVsc1/Txha7iQpQIrdY4EDZF4J+7SFUP+7UgLBAL/m1YQAE3sA6aUZoQxmNgGz9yjrjJTRtvs+/q+16KOMZQdMsXFP1RyUucixT+b12mrY4RezedDzDfLJl1Fakbm1xcmX5qhdTOSaAYKXu3tCCbwDb64vCmJv5x+XExJDKCGuEDA6yKPAXeQyU3qpXizjC7shU1KjMSagtdox2wqa5KrlXJcpqSNUTOaUFZ4qMQmMyYlOHOY3RrakKRNZWZga0gpng3Hdt76MK52t4m9ShzsNUBVXFK4f7RKWcA2oCEX/IYNQVaoiXpDNLBsS8ZKaNt9n39X2vRR2oyg6ZYuKfqjkQmXZ7ZNv0C1Ml8VNE2aibeDaSLqlPhdrCChc4IwShYmbFUxES7quaCpRUordVKqBOt8ImIYzGGD0BoDjCJIurYKUzlQPdCkEAqN66Ei62oKw/aJarqqKF3XqDb4l3ZglsAC/9++OZl1NwurVsgSEELqWrXF3jmpQFJeGPyYxMuBC64jZExHOt909RmbdsTJRSWS7VY44Qk10sRhvwiVdNPLEtx+WJNUy2N0AiqnqIyU0bb7Pv6vteCe1GUHTLFxT9UclJC7LaAuYEJ+0E4OcInyR/TAzgFXA75rkuYQlTqT9nqs3nVWmIx1wmvNgo9BfVg8c2lcxAcBL462NYlAp5uftlqJbAEbYObJnICAxCQ+ObiGhsbtQWODYRKRW6c2uODvqjYz68N8aIwFMAKRNOOFNtAHpE0qcAoutu1+jVElrlUkv8jFsloTzarg2mteMS8wUbE4boQlCVqxKlFN9/ObXu3RKSoc0pynSfZXVwrSMlNG2+p39X2rRT2oyg6ZYuKfqjkSljtirgU07OBD0hdlkg3ecz7wzWZDGrwqVMQU3LvmJOwgY11QVoBLTFAFOaBreCoB1mXok5zt8d8BkqURICLwYhRzWhV1aLy13WKa4qphCklS80OnOuh8Ili7UB/N9OME0pT0aoDnyeB3RNdrl5k3TSJecsMGvGmEOgKvL2gPtO6LU5WnP0Xzdh2mJSFKmc0FtT5bN9IllS8+nNqrd9JScYljRRpHyX2P8A7Rkpo231O/q+1aKe1GUHTLFxT9UcgB7LagNc5idzRMU6AoJvLDpQu9mk7xsiTMKV5qnSzv8A3omBoCVcuqGfXzdd3ZFLqr1Ocan5d0JWlRuLzg19KyMQNnCKLBpr2ZxBrDgru6iRhSBdVcCnvg1pgWgVeBXyQdTkjOggJTraBfWWoN+14U4CXZiFJ/49MTVqAvpS908AFEb4lZi85iGSAFb8KQhy026mmaQtOzdEjgbpU5/aMlNC2+p39X2rRR2oyg6ZYuKfqMcg0strU1BPiYX5oLN1KcVHRUBhC7Sm+6ReW16lKmjRMUvPM5Ra69y7rweFqWpSVkVI0t+3cYQpTVUboG27mnXE40KTNBuqZinWIQVZt2gfHZCE+m8WKdQgLolwE6ik47PdDO/lKHwMKOAZwR/eMOpfMaxtOMKvMQGTq26oXzjlT1Dl9YfduhCFMpF1QxUoYXd/GJcu/dJvBeN7VdiW19Lf28ZJ6Ft9Tv6vtWijtRlD0yxcU/VGT7fZrYC34sLM9ImJ5sLY/wAypL7IQhDXULuKQElWYxG+GmIHNqlBKrpBWTpbhCSgTF6gEE3V44NEoKcgsVk9vDujNSgXr6nJOyHQ73WveTqaFaQJmaYFG1wL94OhWY+O3jBzmqquDb98TFDyUqxGHujyRnDWBtjzs4FtYEKuLrmuAC++GKlqNyYUmuotEpNEa7opqiWwMrNLxknoW31O/q+16KO1GUPTLFxT9UcgKIsdrZLvPb4Qtcx1KloK7iaUZKW2PFpKFI50oYTAgpzqqpg0T+clSUIM0GUp13gT7n74Ut5QS5UlKE6nJOOOyJijeI0kI0QDRtsFDLxIpiUwNJOaruaFghgEFkqpTUe6AVTJiFVY0KnY4HCHa8+2gwaFY03HGoiaa7f22QHBFdVNg4xzjFHnBJq1a++JSKUABOlV2gJq9X1xLxvkRknoW31O/q+1aKOMZQ9MsXFP1RyA/wBmtTLb/qInJvEMnnE85eYUodT/ABhQl5n32bKWyC15WG2JKQpSlFZCJMz7y9rA4QOenXiJgotYVqOdWsCQs80CPw74FdKsK5u8rNZCRq1RKSWlC7mNnPr2PFwoAzqvpHfwjmxJRnKc3WdWEOslUxjXBoWsPoYYAQoXiWOcNuowq4FiSU7txizoVj/6pNDCXKgCluHfEtJx4RNW6ubegqunwjJPRtvqd/V9q0U8Yyh6ZYuKfqjJ2tltg/1u6AmgBqR5PZ1wgLDuEKWoXpv5Q1BDpSgGWUFfNBCLpxO+OZE6YopYAMVAqqOEJWlTzs5lKzQD770S9aSCCybh2wt3+N3aYmou1S+ABHkgAYxfCkJvBjRWGsQWDBL5xB4PClP52aNEU/swXWSApV0gJF75AwpK2KkMQ9CMPze6EJYXRrY/DGEpvM8TZ3ManX5o1RJlkza4P73jJPQtvqd/V9q0U9qMoemWLin6oyepZ7V+v3QoXmWALwiagTLpSBWYm9TG7tjNlTmvsqaKjhUgRzaUqLuhnwzgkQjNSAllgF6b4KrxdYXUgVxrF1lqUsEto3tcKvGikZtKbGhZDhTFxQHyvjsiY33gTMokOQkE4aoWpUtVyt5TONgNK74++/DSaM7UoSrE7oSdC4o1WVXVDUdXCJU2XcYKVjTaeETLQ1JdRtG+GK10pf0nG6JYZSYyT0Lb6nf1fatFPajKHpti4p+qMn+jWv8AX7oBaFhVFI1aoWmXNotq4bdpj7pLnmyGZTDVTRiUEreYFh2Z/nxg84LxQkc4DmvF0a1hbVutrbGFBaVi4gNu1NE+6XdJcn38ImJBRcepNTe2HD0wuUiYkFBUQhRvhRxvanhErnFSSpAKkKd2u0wo/vhUslIRdps3DBuEXcCXc+l9sFJzUoOvDhCJYlJuip1nbF4IdRwSCfdGSmjbfZ9/V9q0U9qMoem2Lin6oyf6Na/1+7wAtDPVNDDnyvjqhlJSjNTeChmjDjC1BeKQpLZ14th+8LBU+D47aGkaPNyUNhU7oqVaZ1FHGKBcwum+C6bwwhm5sEg6SlNRyTBFzzrxwBP90i6NGn5mo8JlqmqUphjjshKUyxdR79vg5ZtibNZFy3+9nC6B+XWYyU/Dth3o6vteintRlD0yxcU/UYydmdOlPrSsfLxLwOkIMvzawcFJXLoMIzb4VeNDhGL5w1Y7ovVxzWgkKYXXrhiIuzSdBRO+FFCRdm2qUjcViDbuSpOnbJajuzvlEzl3k0fzlK3JR+7QrKKxeTInHiw/eJuUayPubIlJ2qN79onTptomGZNWVLOsxk/ZzJ5PQo4zTf8ARgOr7X+G+wxlF0uxq1ZvzizWpdgtnOp8lRBTtGyLNbLLbEgyZofzDRQggjGnGDarInStcke0EK5W5MRjbE+gKPdCuXuTkYKmq7KP3heU8gaFmmL7RA/eF5TKOjYEDtKvQrKK2H+TZxvufvH8b5T/AP0NwQkd0K5R5QVjbZ3/AJmFrXMLrWVHeX8RidR90XSMRHI/Isy2rTOnoKbOP/fhujAdXzE30ERy5JM2xoXrklldkxNN5ZV51Tx8ZicBHNr80xcO1PvgIfyvc8IsNpmaFnnq4S4RyJyivCxTPWUEwjJrlFWKJKeKyflCMlp/l2qUnsof5wjJiV5dtmHsgJhOTnJw0udX2l/tEnknk2QQUWRD7TnfPrKdIvOQBWhScCItvIE0LKrILyf6RLKHvxg2C1ChsVoB7BhHJNuXhYZ/pzfnCMnuUlf5ZKe1M/aEZMWzypshPoKoRks2nbj6qGhOTViGnOnr9aEcgcko/wAq/FRMI5OsEvRsUn/xEJQhGigDgOutRgU6p//EACoQAAICAgEDAwUAAwEBAAAAAAERACExQVFhcaFQgfAQkbHB0SDh8TBA/9oACAEBAAE/If8A6HLI4A3K3IslXuWvYS2h837wJ8BdGhCqcmA8SsDHWiJB7D+Qng5kBYCOh9axlAT9o7HxP211jWSzZHJJgWKkMEMvTU5p7P7MC+Ue0AiV7P7gh88uBh9uGx/PM8TdX8nPkx9yJ+PT+gYv/I/mfj3mYlWSmISejQn4cS3TKBZL1KADA0CfGyr9S2Aw9Z4Zmc5+jjjCAcqIT0TD0ZXqdw6QstGS7cDRyJQPmIt3co59mJPxMAR0cfYmV/fHyFA4JTk/kBBh3oxe7HFaXCofg8fl6hmBWhL/ACbwADbB4B/sMcP0BBMcywOO7itd2o+wwAWR1JOzCYJc5lEyGqB6/kwmDzTCPYFiHTdhde2O+Sjugg09k/fPp/yehnw+ufK6QwwmEytfRlBAqEiOEtIAhDiFoCXv/sfQZYM/H7Yh3deJ/T3yehnw+ufA6QmE/SJiGV3A0YhRYcbxOuXYZmCQ7c/7dD6Dz/UC/I6GfD64jFYgH906x7Ne0dPev/UugX3fYw0wBRBoj7woTBGwwrqYuY3OYmkszUzIJ1Mf3E8r1CXyehnw+uHk9owQBj+x/CCQ7E+QWu0ACrDA2s0Xi0zVQSEMY4p+YtAkpvO1ntQxAQcF7X4I4jOscQSYQH0NiAIjtAKA3BDxLR/K9Q8RJWgsgXQZ6wEDgh5xA1mhBVvq7Q4UYjsAwA283KfmyE4WSOzzAjIrDgtz/iEVEehG1jFwIOGxKuXDWIR8sDkKDEUH0FDvCLigQFTpB+CeV6gpYABB1cPM+Z5QBtyoBtOK3YiWVEhs9fshLKEqSAIKND3QY6KYCFg0bA4MT+PiEA0DgAE9ENpAWACcgphBaiAiCxCsDCCT/MAKhPEEEGZMzeYhZlYAuSEoBBBmQ7Q3E7AD1DXip8nyj9gb9ih2u0xIlhsm0fZYnKEqxQFg3r2hbhuxK3CLIrrKA2VqlAZX5loDWXYAVCr43GDPOgEwCyHaPoCo9HnzDZwm4LgbiUNACydRwXHXAgIVBKeowOfJ8ocQShBkAAWTUMKw4rDHJGc7iOAmgj2i8FOLGCxF66L3EMENFsg5AJD269opBd0iJNETYbqE2gGAk+chcK3Jn7/8gKhbse8BQdwwItLXEzLE5MEATXqKV4KfN8oFjAssljg9omJyRSg5dYCLKLTjh7S8ldYAc9SezwYRwbcAB5Lo84gwaG0UQ9X+4IobAiQAFlgMe0cxMNisbqMiILsTEWeB/e0zFk2Tz81APaCbnYON6hb8FPl+UEFvAPeAQ4C2s1y8QS7YxioZVwxGRPLCxX2gBTXQIsyBVvUKAJiBmKe52BCGuTmCi/cqoBIcLD7Z3NVOqXxG0By4UnecwV9B3gn5nlfj1Dfip8LygKmsDkTwBoeA3D1qZik9C6JY3AIc6UghMsgXsFUEdYgTY2RjAa1qNxdQKRD6gARhCYCLa7UfeGhNp7UIlmMH05hWMfvv3ih9MQmoDmZqU/Z6hXxU+L5Qd5QaRS/vNe3EFN1+yBg7bAhVgiEKPRQnAsRay4VoSAFAHfQ1uKAUbIkAPNYrEOAgqwMCzYWfggrQMwUKz1hQZ77P9xAQCajzv6MmsD55mtsxR3/UPeCnyPKUAGFqrNRphWBIfucIAq5TTrLBfEGMQLEQEpBfVBxAjkuvcrErENkCF7oiXovO4Gj+glVUMQgBeJ1JeAcS48QDioYLHzcf2Wc4h1sAn1DXip8DygZvFrNCJqBb86YrRSCLH4DCiJNIDkvAeOYM4BC3U/7ALScMbtagCkC5f5LGpxUxGlMRIO8AColPtBNOoPnvB894T1jC5PX39Q34qfM8voIgcgH51mTB9eIWCIC+vUff6A9oZBXD1gEI4qaUeYcU4crjXbvMZGiPPf1Dfip8zy/8ZE+F9wYQ4bRQiamRaq4LpXN2v+Qjn36hvwU+Z5f+NiYOP3QjH09ocaSh0hPYKvjj5eJ3P8+J81eoL8FPkeX/AIS8upfmHZq5o69p+dTh0+B+p+Dn+1BL7BD7wDiAofyC2CP3CwUFHCxvfqC/FT5nl/lboYwAHKESeLgEBsIQCC2k2jjzK8gTqi12gQCcAXju8Q4gETou5iWK6XGHWGvfCEWNn9LUGOXH7ud/6gvwU+Z5f4GAZQisL3gpwEyCylK0AmANRUk5Di0M3SF4AymxfJGnCMhUEJGW+k0BkYDXXcPVRAlEdneoDYZbIB27k6gChKKIpO0oQZBIyBkPpuXCVv8AA0YXqDR69oKVz6gvxX+GQxCqDgJAZDqTFzIkUrk9AcBgIQWCO5tD+w1HnW4UFtfaNgD3GQcuzvpLLhhKndk181ACAi7X0o5vrDbMMmRccxYQGgTYWMsRmAtDgSX2iSMDnHksp9owFGSzGPQwhmYsSHmA+Ed0jAkPUEYbY9Q/4KfM8voYhIQhcbuEJ8zmCEG6DmYCmxSUCq5L+8SFSHZKvTMIPUzozd0Dz1jnkJKTpd8G6hkoaCAK4BJO+0FAsozC8Cw6rjMMFFgFWOT3OZZMVvJGkASB0YcoQUSACToHgzOALkBOMc5gxugtZR2CVMEYGx+GHEiEeOsQbvrF6hbwU+Z5fSFtTTJJQqUECRa7r5gIKrXIWXuxF5XINnCsGHkokkhTEe42ogQLMFop7LhdYIIsnvKWZ204p5wN8QtIyoLsocMrcFFc6tNXQdIUqncIVo8cqExuloUsOS4b7mhIiVLwzDYJCym1kG8xqGyFmBLpFfdfyJ2BAR9vUA+KnyfKIwwOCYK4XqEyQJrRyzMVaxJZw62IaKYh1DSMpGaBoINOwB4aiOr2FEBu9jxKGEFABHj0cYFS+x6t9NNAk7gcBILW2aYTcysEYF7iBM1sBEkGyHcBDkY0IxmqRwbAKi9vAf8AJk6uh2qZ7RoJVRK2wRKAbBB3k8oRHLQgsZr1AL4qfN8p0o81Uf7AV24i5AAAsQh+ObhEwjW1kj0IMBuBchwJ4ASjwYQEDCbnWKP6lOpegFk9ExhsDVihx0jDIZpFrJpOAbSsiaGCy0sSqtZUM7UojZ1GS7+hiAfCDI7tJP8AcBxy1BM+R8EQpuQIM0+Aq+0FAmIBDb9dY60TZfwiIaIyXIoBv1CXxU+f5Q5ttmpAL6oFUHJpjcDISDuabo94UIzkmsTXQagMUNcQpwaxCpyBEDC/Egs4MBsaWzxAArijQJuhPFcQUsXl4I12BAG5iM0SCrJxCIhL0E9pY6Qw4LsmEeqjcDsAFFDwGev0YHQFbQZgAku+3MzoxHsBgMYEMDSB5PN/FCgRkrfNiwEo4szuWcxwevqAfHT5vlDQ0hgCIH6Iy8FcG3fSjYC6DAHtCyQRiAqYAdLGwCej95hhTBgAf5DYF1IsDnouIgkODDHGyuYG6+rVLQ1pQ4F9h2ibbyhLWpyxkgYBZd4MQHcwQeDjainySIGAoBVMskIQSGPIJhWPYVgB1BJC8wW2RyUMcyzow01mYAqT2LWY71KB4hYW8bmQ2Sso0l7+oK8BPn+UE5Vo2N5m07DUizpaQIsxxvrOuoo+BHCAfehsPxCtAIF1UKKOYnAjaLH8EcCgJHiyTALuMQBABQ7gH4doYL6pVO6kbswcQApk0H++I0qIw2IkGcn2h+B4DvkQm73H1CASGSlTjg5E1sU9DBmBdzFFlUexcySVCCSPhvGIRUART5rWQBGKIXdRDw/UAeInz/KBv8DEi4g4JhwCMaUAiLFXzxDq6FK6DJQqDQrDaAEA8mO56aGPZfViBOID7WW5OhnmAZR1hpgjNQgiC1grgXn3cDE4gdvxus3BUGi8NpvnpdwXKMqQESYB3ToDAvtAhYCxSXlxAm4UGOOOxm5dCJJIJBwOkvMJkLLEhmAQ7EiDrMwpFUUeINKMg3UGffWvUC+Bnz/KWbSF3T71KGB0cOAoathEEw4EG94Puhh4FjQw5yqcZEwtsGxByA6haQVZKlncH7wNGKXAD/QJhJF60gsHstcmJDHWAyHR3g0YbkShnB2aMLMOAzswyYQILAioQqU4BYY5yIDG2pwAWJvhRZA7IshahOM4hcA3IAnJ40jxfNFoIn94PEy9ZTIkRsKD077xpWKQ9QD4CfP8pXgEMawKGY+QNxEBASqojvKQgP8A1FkVSBgCNEMFOk2ZaeIJsHQEPKvijFXSgpdGUfEJyZMlsbDtBxIEgmSU+Sgq1OTbAHa8vaF1ZMF1M4z2gYYXBQWBofmAek35CvhWJY2LGOfGr3F7dMrJGxil9peZc0Bo6VA7USpHWmCbU3MsBV1yt5zqCElcFj4tYJr1Cnhp8/ygityZCPxETDNDauDEHwMwu8Oy4PSVIG+YjACUrpyoAA4K7GEfsBDAheSZJfSUMCQYhiDQU/zFsAhQFUFFB4gPKX/kABWDrMABaRBK3E63quIQRcONkH/EVIIhJv2eYBGSYIk2CVazeZyCLQFPgFBQXygKsP7j/IRZg6V1gHIDiEnvBK/kDYU+lLsQi3dGjeYRQ2ID3vUGvFT5/lCUdvg2hC14IAYxp6KmDWIBAMFGkWRsFk9TdKFgFvt24MKM4iBhYwuyUr6m3jBoBVfMXkAZ3kJy2bhkCViEAvQmiOI6EGgRI1HtCCzQB6M9oaVmAWP9o2gUiUSct2r3CDUgRpjOEkoMUFkgiRFN1hZ9YtKtBG3WhGGiwAJRZYRcF1DB6nMlgzZXVQ9m9CIJLhqm3x6hvxU+f5Q6oCckNWwuby4EIdxA5R3UAwTjKKHmCygYahBXYrjtUYHvcRvFgcExLChJq6Vk9f3hdOgwwMCg4f8AYAZEM298VnmKBkyhA8X3EYbeGSRX/Y4J0ah3ond9IIIFgCCq7DkyhALbZ7B5UthKIYJyhro6RD/JPkUOiuIABUUN3oo17iNCILM5oLw4rSmIH7c36hPxH02G4YAke0ZMkknEE2IFsYERG2CKnH77gQNiTkOBxQxBBQGDTXmgAV0gCaKCBaUF1vvEW1CJAXSvFRsso02OX04gr1yEEIoUdqZxQHFST+yAENEUaZenncdVPEdwHiCuG0VIvGIdo2Kigysug5uEQMirw+7ZgIxhAlsGipn9pe+BYAgB0OczjAYsD4Z9QN4ifG8oaFjIYdqeYXPBB8qEkOC5JsXLG9OIAGuqXRMHSLxcjyZL1EuZmDQ3ydesNKKYw5K2eDhRjiM0cA6BhW3ABewOGF6kP8mVNTW7DyYusmCBBaNDfAWXtLGSNUCOKzgQhiwqCmOKGFuE5BjkEFnl66zEkiIiF7goSByJZGM/Yw4MODNiAtn9xZIj4NXPM9P/AAE+P5S7ZW7wGIqjNSRO0jn2g8ySZ/Bg3WhxdGwi+JFqQCnUBlzA7RtjIUThBAOM1gdHFyYCBSCdnOYwFVgnz/sIMBBWxiA8aErsxJxkzy0DMAFEqZC7nqYQOyR0CfuC71KsZT1FIxyjGgHoA2rYOA7QDF9xAMYcaEXeZQygUyz/ACeR6f8AiZ8fyg59S0xQcSzHEugAHAnSoE7BS4qL3GoRrXGcrHUoQxUFROlwMJKCEoZDJw2nCLN1EuTs74ETZATIlsKdkBQHYRYD9gdjLxDvGdOustCCIZDZIF+7qACMwQzwS76dJQbeQ4ToDFMQggJFkPyPJBUODkc/7FAIss8s49mIXYDarAHTPmAC6ghyfkfUH+Lnx/KCDYya95HoNahRBh5zBj0xIV4TdncC6ChWQAkgdBtmDC6Jep1Ei5eItsleirEBknCoyAOG1HVDJVhYByVrcsgBBXdgJwEL5D3Dzyn0nPKDmByDBuKCQJHRPo3BFMjVuySqZP8AI6gAKXz1dx5imgD3CCGClWN7Oi8P8QesiAJxyXM1tyJbXJx6gLxU+O5Qm5BcGB9YKCCQCCxlaJ7QjMTYOXIBwLcbsDV2e00mY50eMDm4EIgDzgBIroYgocasDddYkbwiQI0Evv0gKIuwSD8ggFqLQAty3Fat1LAhK3A/0woCEBJJ1ApZKG12lS4AQiiFgaRZ4lG7su2skYEDoR+oNxkAJUADuxLaW4JTmqWd+/qBvFT4Hl9BHNiEV3ZtzNEVACiCATyYCTHSAC2TrWIQIEEppY0rOCAOyAAIg665hUASJQYg0gRgqBYd4vLiYU4LTkeQzBhCmmECw1HNPqDsrYAzxDVACMCD7C7QjWsF4sxsqcQMdQa9xu4Q8JQUbHd+YLk5P4qXGiMnocH0+PFT4Hl9YEKoi9l/kJiAAQKA2HdQlYGToFM/YIyuBuriAgFFYB0NgpYscNo5dcRGl5ZFWQSX3hWu5E5I5cN64QBLbOxBm8HRAi/bQCYSoNF43jsIK4AWcV/3Fc7nn/Tp9BFFvjH/AM4BpUQ/YH0/wX0SBLbKOln+R/ginddxmg8QCQA7gfv7S4Fw2pn+Q6TNeodveUEUBF2+3aBGDwF0iAojlMFW8rMLbZh0+5jg9XCHiYApfBcABd/HmE34PwBGR2vyoQLN+4WI8Yfp/lEIDqnzhINlnIHKJQ6eWSjugfyIFahyQH5hkg+NFv2cML59xB7x5+Q+hJ7ztP6CA0OnET5GEjQj8pR+NYB4nVyxi8z2+jHMGMbtBtI71+YYYTsIrr8hgAAAAAML0/qmKgui94k+xCnLP3DPn6IfX3gyk9hOjd6/k5Be39OMICTwBfqeUQidL6EKwowiDXxk5n5YH8RKYwFvUgXcQIRlUQe8dxL9kwUWEPd6/U/D6JZjtqpP8WR5EqeyHPliAD8TkGVj4eXHzAi6Wj1ogEBDgAKAH0GfR//EACoQAQEAAgIBAgcBAQADAQEAAAERACExQVFhcRBQgZGhsfDB0SAw8UDh/9oACAEBAAE/EP8A9BJF9ZYQqYQh7XROsBU7oNHvHFQ/rsQxSv2+5RMG9hwWH/wb4sitzp7hzy0SfGnzd3YwfTBII4uQRs9yenCXWtm7Dby831wZckk9hTD2KOd0+l36ZMUo6X9mJqPH9acB7rn87j0f+KW3yTcZFUEf0zHQh1r+2AQJjr9xuRn15+9OSB7/AJh6EJLK4L7X/VuJYPR/xcAVuOw+zlOevmPI6z+851LE/jxkY3ekkfQRGKpUq2q4txA7xG94sUwggHMrhC5an5iXAFtyqj53b5Dszn8DTT0h4wK8FdDwry9BVytujsYH3tyysnDjiIAeihi2i3vaT2Nxs02D3cpPm1iv2cMMHilkicff9vmAHWogl8rtNAYhpsVPZzPJoF9JMKYwGImQMoiYCb++LydlCKEoBETwmkyiFsCeyImNJUoWjFTtZ9tZZhqbcAKrEyGhY36neSE0frIxE6qdxPAYTwKET27eo5ffIxqIp0zqR3ZOW+gA4z5cdfAL8DCb67xzbLnqzfFxlX8YNo49M3l24xRMB5xL0klyqjjYLw9ZK63FLAq2vRMpBsuIoskvhT4FbHivBVwW2s/c/l2dfCr8DC4nV4aYZkLOHRnW7u8UE0+cUCbHG8ARp5zdrScYgcjjACjWOifRg7QceRzULR03pxVdOH1yCqP20f8AMEA4uvg38np8uHXxOBD+uDjNluUyk26cNdR44w2gIbT2In3MKSnUc9vY+guWcYhqPCbGBs/XeQBDWMbOMCHBSBZioRr2wClInLNTNE7+cINpFaYDRbd4EkqiYy/KfuOfjM/l9Pl06+DX4GECyKlWpvwbanK3wDBR7EkTcbmDdgHgi33v4QtwGTXFEvKB4CrAFahJG0HpSkq4HBgoQCD5CfVLGV2b8MR2hNpM7HUx3XvKwsBubiVreQgTZ9XxmhZ198oaX0x0el+Phmnt/LtyV3DiQeecoIbzbP8AjnkMkHgc+usDAZA+tugAezpHgcaPNZ3gLmKXr3i+JAMdb0LNAWNjisTUfbw0rhSMx5hqXMIFw8kMKtYOQ8nucJ5yY6VecgRN407wR9PGe+aq19FzSnXJ1krE1MFgRDi84jxsL7y4MH436/LrgAV5UJn07gGcPwQosoRSUWS0sDiTib0Rje9Rry43bRWLHFxm2uXDW3Vgql7t8by5Vt6a3OAHQdjBvzChQJ4HU9bMJlugWgqDgpPC4QqJdlwBi3gtvOCYrtNZEpom3rKiShyigT11gyliOr00d5CQO6RQ1BwZ5bOs/VzT2v1+X/7vk+AkVSw1lQitA0w6NrUW+3qcAOjwZpFoEPQ6UHhicHssOoF0i3IXUwQQDofKXrRyCSGXpa2CgI1bOotxTrrAAEym9oi4AhoAQVAPYZdjQb1kcPl1lQG4TfWEzhg26Dl9XwZp2exPsH+4YAhg1nY9zPxv0+X/AOp5PgJWX0/kxb1gDjCsjlAUdskUJOXJi9VObq2FoHgMo77Ih6BEaKGIKjvzU6udtm4wyGt9Paa2tEYBlIINQU6YgVw98YW9T0jRePfhgFrO8On2Bw/XF4e+BpHthg9BOh5fT94Isrqcr/h6ZIAMieMGCLzkXdbO8/D/AF+X/wCr5PgpVKmgQ7GHoLE5Ao5yI2jG3Vcc9To0hfbQIzE2YU5A2ESKwNGnBYJ2lmVPJeBOjABcoviCoV1UZ1hX9tomXgGQTW5iCvOEOxrwt4xBDjKYtPDmgkjocYAlp0e/iYMK84Erz/x1kguHOcig3vowJvYZz+spVFp6Z+D+ny9t/Ts+BlddGRAV9LnjXAVyF4LVwd4cwZsAgA1rq+44xrZgtiAxotk1tjZKCLkZQD61leMupSEaFCQoMZOMFHTJZNI79xziTI0N7sqTbloYlSuN4RsenjA2LUW1cDEGznHE8HpgjjWH2TXtiIH1f5iu+XfGMCRBp39CH1ziTjyn3Z+L+ny9/L8nwogenBM5F9zrFAnkgbPOFdI6OcB42VYITUXlcRCkHS8Q20ICY9zyoAWOgCCRBE4ACHgh+h4I9zIItyX/ACkFXTjoiyTabV7u294U0+uNDrl0MBDpoeDs9f0wSAw1DvOmrOsRMW0C4Uqig88Z0QK8XUPOWghsNOuZn4H6fLznr/tPhJIa8c1Hc+rph4GbkXhCQEXvDWboxQKhXRbhiJCA9RGqaCDHL/J4cDqQuHzkcgkFsIlO93y4XDZnOLDfbV27Aqxm2Psui/V3kIoPQwGUEE93H84wzSLmjdD0cCofXjWEuiDad5eQ8M9TBR24AU1v/TgaQcvHHTcYDA7Khz5z8D9fl/8Aq+T4ER0cJuXczAyXTFhdWK2IG95Ax2UJqOblUS8mOVdzuR1rmbAGMxvZhVOkS0ut5FQbgNISxeeKYmpKOgk6mtGOoFB0xA6G84+h4vg6PtkDBS7cdhqJd8+mBRra8zrE3QH3Z498fIbCmtrwxCrR6HscYIlBobv29s/r9Pl/+X5PhRc4Z7TriAV29mxa8776MgDtEtAae/J9TEuyw7aCWC9MK/8A4ZpNXgHITNYIOXY2Uu7WV6DLQ2r0cAAAaBwY6C0usEFTjvWCsQ5k7zWie2QPE56wDjT0v+4PQb51uZ5KjNf8wFF73tdf/GVXvoDe8ONhR2ux+uRUE7U9g+2pn4P6fL39vyfBj+ayFBvDH8YeGhIhpAEDgITWBwRCSk6yHu+X4B8H9WeNHtgWbEFXReHvMYq8emCJBOhxdG99JzgXaA4NYmiF4dT3/GGuR7axIuQrrvz98gSEiae7jCtlEgwvo9W8/F/X5e/t+T4Mfy3/AKPhFv3AP1kD4m94kO5g2JxJ6ZQs/brEgV5a74O8NEI6N+v3yBTObMUhVKGk/wD4yZ5PGT0P+5+L+vy9/L8nwY/kP/Rgbsh9VYjoNdYu9FDs3mg6N1/3JAESAPjHoQGuPXIE5Fbk73gIO7YHZwMlPQKTpg0ZoUgHo39M/B+Xn8vyfAj+W/8AOGJTxNPscsQZJZihvOIS+XD/AEZUXicL/tzj5qt1+mce/q7fp9nCa+XfD/T/AJmuOZSjfneK9pvWqPPGBoUuiO+vviRFGA7HAe3zAn9vyfBj+Q/8b0f3IHu430hTZers+5k8+5LBmqG7tuBtVSrz565E+2bJORCFf2pzcc0XhxVqwAujzmq3SGjrSafTnEmlsOlAvHGF6Imo9HazVdGis/O+3kwKURdvJ7+MIQ2FpE+68cZzDZaXV/nP4/T5e7X8p8GP5n40kVwPoblGuLz19ctURpXIp6W/Qwirp4BsCyg8LwpjmAG/EetA5nfBlJWLXMmlFGlltxcwYedPU6MDc5HBXqAmEdgOnKEE5yzVXBWxHL1KawoKTX32No9CgGUJDR4UbgCMVrSZITSmTWKkE2RmFUfTmvX8o7zUuJLk7XkeprEFEmfnP5vT5e/t+T4AfzPwyXDt8YzsG3PED1wKvYjQ7PBBBiG3CNwoPCn6kLOsIjmAAipsbDrpvPdNNZPrEEHHSJinArUhyVXTvYjBkEWU6em3ROHeA036nSqUqgaarrDyywQO0PI478uNpyXgTyp42fQwtmwKD7obtc843wv7blF3teR51h0FsVSux066zf41IvWep6d4BNhA0cPR/XzBG39Oz4AfzGSRPv4ywgpQNnt6+MG9yQUuGjfdwOMdSK3lFKQduoAxPTbEgxEABxXSOKNahALTAWPd5dmdQ20ynq1ygk1lm3Nng/oS6LgOb5AVUidDIdhM6S0R4SHOAkbHRh0AaSGhSQgIYFzE5FxWctBRcNKCClWhcrR466wYSrG9dDGJWJd8ZIb3bjQG3nxc32ucpBwjw9Ywyhwb/rHhz8P5e/2fJ8EIUQ5WUWpuAIu3o9c0ThBG09XaQMHGKDW3WcRJWwMrEFmbVAZoOXIgAR0qS1CBldOdBg2pR2VTvfHWOAScOi7uShbQyBE00CVczqQ0Axl6UlTlNIhtbBhm8nzRjbUSa0ectXd6AeY6Y7IxZFgCLPTa8gj5MYEwlW6BkLfSW4cAEgdAIaW4IuEIdEWhTseOob24dSNngEEPUbmW9RR4Rdf5m/y/v7fk+Bkjolk4TJIKa39e9fXA3zbQQg5M51cJOhgGkpeiwFUcNwf1huCwELsXGBrOBVAt+QQthiFCWogGN0AGuHt3EVNHLuqvLmYcxQslpAJy/C85uGbDOJElPG1XvB11ANL2eF3pNZt2OumzpWRkIcmXlkj66uMq0Bi5Ug1HabJaEhdsSCl64BK0Ns9pxxgw3DyGxVNMaYQdJUuDWcFou+lwombAMgNUjbe/mEv7fk+Dl0Dt6ZBoAQobux5TU42usWDfBiCgNHemJlAn01URyczk3m97KBAnIrhnnGHKKFa5s8k7asyMqNKgE7AJeQSuRB7aUGeLtgA2mTkbs6hSs2m+kN3AucH1CgUd16MFo/C4wbUKKxocGEAJTeGUeFZtJQi4PVqFWRNNVBpJwzTyM5NXE0TfEM5B1/aCqYvsByYkp9zVsLIFqTtkApKyjjanqHrhKZXciDfRqSGrv5hr+35Pg5midUGZUOAggFq0wqHWQIBK9StPNMMKoEEElGK23yXJ93KXEHTgJ27XNTWroZnobE5eciDCIuBrQrkU4XA6L5pNsiEGlHbhIUJGqEGmlFdJ43iQVuC9ByHIQvbj6M6OWULsrntjw9+NIiA06E51cp8MZ1LmlchEwABjdg6aNNcOFMqwF0Jc/IVtq1yss3XFF6SnMrbgzAIEvNoTvXTzjKM4A2ohirz0+Ye/i+T4KQWAyj8ULrNAnCegs7RuhqY4DyVSTG22Haus5dtFOHq1TmU84FcQVogTRXcL24gCFlwoQFlNaPnL4kR4ep4iipNORCR46N3egAVB3lutxoT4G1o5AwB/NTlPbwAaM2jNlC0Loih6Bm9VLOB6kIKlJTBGBXlmBeYNjh8dXJFMKXNI0y7qyLJvCUGt2ZVDNuh4kCOKJiFMqwiPAg7Xjim0lWAqTgPSDecU9z5f/wAnyfBzo0ujz7Sc0yYdnluEoZw3KdV6IiLtiHFo4/GdWy6eWs1BAyQ5BAdAlBGxFvWIJ8p8KsFn3BJjyHHotAa0JIuTMa1EkRsDNcnnIUePLkG4IjJqApFbLzT7UhyyjtwgCqGFInIBhlSyFDSHzWijZlkksAUhJKNNMNA0leFQXkiwdZPPNhTbVCMeoLhONwtgY30mgccDNgOoUNkJZq0xluVL21eToLdbfmF/7Pk+Cm2wkjzzCYjYykWWSNbe+UwYFRLIBymju67cVGZigrgds0zIQnMByuUHGGixAgO1Qm5bQVozbAC1YT8MvDj6RxQmkW7JLxq4CYGiMqjxKFijiZRGt2BGx5tjgmAhlmWAshIqmzeaLNoQ4H2vDmpq46ryxBC1CgONLLMC4qq5ZwJwBCZBQJkagn0J2upgmRt+SKFeBKvoYYWQAnQ1qTZxmuVKwU6xoliIK+Ya/l+T4KWwvkhAIAQo3igO7OCcARaTVmI3BtUDbhCUBjDnYnVrAprqNELMLGiW7uZF6g0TI4owBRX2arUFTBw+GVyClME/OU+3O2QXewbUHBIRjc4kNAoIOdzGEryHpmk50Mv19LBS0T64KOOtoyOwhKCABdYzt8g0lhhPK3OLVkoruoifBwg2N1usIBV7tMAM+cU0EONkG4Fmc7xDulprrrWX0RHTekm9nRE18wt/B8nwYyjHsx2pTMaRyLoxostEipl6EPVXaUAxM4Zty/QNsmKlLnY06aiRVchOONYIodjREOFq+Zywn8NHnCHBWnOCBGV7geQrqxmRZyM08SUAVaCwk6lPauzot87wGLAeGX2I9FaPKzdJ2kASGNmjiiK5eaCWStTsEyDZtwQaYiVVzBAo4lZPslKhWYSSWMEBpoMZiDD0OQ04lKTBEXtqWd93kwMY5h0GKDdxunkz8r5f/wA3yfBT5N5glddOPF8AgiSrDruYUQSeqI1mGyaMXJn4QUUM5h2BA0YTuXtqBQBZY3xMmCc8ClQAM54uAwigzLCJYDCRTFhA0jdLykXeBxmu7RVYX00XgCjECIVFIIKtV8vO8Qi0PNdhax+iYRKujQoLdU1rUuJvYKMSAukBv6BMGADaq1Ca0qux4uNx3PqWKmu+wutGEFF0GmEdp3zo2wEr0AP0JqqsMV+Jh4c0tjoc/J+Xbn9XyfDybaK8MlTaUx1jKpIYnM6FVTklMfauesPJHiTLzWu2GBbAFS3Q4EkdoFQhW3o4dY+YbeZM5KKM8uTEcNTtaNqS9DwZQgQD6dKII6Zci22PsngVzN8GHNSMZFNkC6iC+8wXRhhHhshd68m8fLIoRQvSgNRx64vgkhAjUZRodrkgxL/hyl8Kr04Db+YExuEdC2mV1xqeFRQOW0ZyzG7FFSpq0BTB6YqmBFAHCAtTH5vy6c/q+T4KWtM8mtXJGQOTK0RAeRHgxC2Nb6flQtDXthQbZFkmCBzb6ExDjz1Vqw7INyETF8GcqMADYNJ2cMTeuGIC+Syu7wyPRcm2QiI2kOQwhOxgGIkOQsrd4CxW7oZNprfCNbwPTpPSBPCHtGjEksW9efBtbcIWKi8B3sYwSdVMgksUpEpqURJX0GBEzEqzRtUncVLktRu5sZt6pXRHI7VropyREdmJpxtHad14aQFTVx/d+XXjP7Pk+BAmH2ic1yTQ0dRoBSuKmJBl1Cfqd6YI4VyhXu76DdMnN/cMa9LRbcGTSNBM1y5s0TC0YNUzpNDCalAMaYVDaCAbV96apjXV0ciF1C7rAnjAGGaaRruVddOJa4UtBJrAN+jIVJICNt12HMdji0C3awbQ1pTwk4cmOuWfJ8jp8y3GtfdG8hHxYDw5MHYsC0R+CrUIhioYI3QUYxWlq45JNwLuk30zt8Z+b8u/Gf2fJ8FK1YNkGQAZztW2MGtgwLPLBAu0T0LioEZjeqD6ubiA1EccYUxd5BEehymKHjRbU1dJuduMveawYqdMm0bytFbJUgyFaHYzfxmpF180cSmjL6LaJdIEEILhgfghqQPSXLeiYoiNi1rHmGiHsObVQCV0QRqAIWcGcCZmgCF0VFtXE8z6W2ukBXo9zDUnTVu0ciipHSJidKh2KF5Qs7BswjeRHW0aj6E3v5gIL6X7T4IePGPs66HJdasZJkVnBdUY7RUi1wkpJXDe6xNwJtiOtMgAAtXYxHrChlc5aGE8u5S2rgCCJp4qMdi26MSlJc0hOXrtH3HBLJy5Zuuzq3UzQdtGqQhDLm9piEkBtMUkbDoAQUx6nbCSXaQ6hHIrHKQFlG2pmm3RgNeAbtsa23yzrCsYmUwoNNuxsdZvR0orVnJfLvedFwHoAjmEeesaxtruNtIkNAevzBT+35PghcxWacLxiYpYyDrFpHTaKRzejpVjScjYUJlUeYgpmKbblQM1E6eR0AMQQusLptDuyawWEAYEXDIo649lB2EUUrsyBGpFh1NrV8TeRLTrapEYcTYprAaPj3MDojJGzGaGCQQTyDgNjhyVhsMJQfIixa4TLw9aJoYiEngA7uGy5lPcqpEoOjKXpYIMdhE8Wj6hlXupW32THEc4UbxQmQRbXBYnWplGCc8Kh1I8nWflfLrxn9/yfBDx9H7sDKpdQ4qQkOkdBgqfoCpWFApNuXjqYecC+mBvBd0v2Ls2CjjnBw19LQIGjATqmqaWoGgNBrFFPM9FBW6JprnB2Q4KiJQPRBbi/AQScwGlKEPVjPYqNJCgPH3pgvuLDje6ga0RrED7TnWmBCuyXF0eSl9Bpou70ydKWKw3K0EeHYaw2KIiwbkIWw2HAWF53wAPDwZZXvuoN27FtfGfk/Lvxn9XyfDqwzwMldGLQe3/AHB/6QQtSTBAMyeHX/nqBkCPDkDvBs7z9VuduIaOnLysZpstS5pDIcwEvLqj0cmOzkp4HKMa46O8N/dgQDmM76YwmjBygAYGQx8fki2aINI8BtuaGwAKgMDsdgmDAJY4dANASFdjKCYyV1CCxgdM1BnFU6kS9BeQ1m3wEN0tBJo154dZplpM5KVosw/pdigpyR0+PRrPzPl34z+r5PgZ/HZ62dmI7OVwqIb6K5dK+5aVUR7grklIRZCDnNdMMWnhhMhYVdA9uQHIUwmuqDRc25QDun4nGujEIASDUVRVwm7zlAT2sie58KDw4VGgytRkNd7IVMPE8SMJDYBIGrBnRuqEi7LrDgTFXuN4YLtAV0UwyjSoK6+jVbdzRjL8FuMbvhryhzj4XlVVzL2Pzy4AMRZwO37GQ97/AF+XeM/m+T4EfwvwmlYlQBsLBfPr9MS1jV5Ajy33hiiO1VukBom3DSrNwb8U2l03jeNbZrkoZU64MAMFva9Ja1t7ZXFSALD0QYfRrOddphQKeB0vGLrYwMPJbtZDRrLCI7G3Fu7WHXSZdjChggaNkjsbOcjQ8n1bDyrcMsxsknsa0eA1nedjIpdRDoSnBK0/7r+X/wAnyfDjKiezoW/f4go0Y5G1PB4f9xwrfdzZ6z/mIB4A1smnXSZE3tGEEHyHMB5xIFkhpQsaq/hjIlWDto27jVg6zgvdQhBRl3AjMXhGmAnlqVecLbC4X0idHm7cZADsfOHSfEB/bNH6BJ4v9yF/2Zj3T3fsBwHQQDGwEOCPzA/l8oDyMfnLbk19LrgU2rSQuYQlKqvY7cs2Dj6f5Cn1WGo6v4UTiFr+m5UPsJj/AMJL4M/0zXjFut6FrnnmnX21wVXcNn28wz/7mSJOQ8Ptgw8Geg++DffB/wAw9STtn4bYXjZGTt5rzNO0AgHQfLz1d3Hp6xZL7/hX2ywOH0HZ/wDaxB5Mh1kPB9vhTwx2J+q4JyDyZ/OIM9xT8JYfr/HwsF0oxv1XHJh7wpGZNA/cB/dnwcNxif6XDI++9L3RbHAD5iaTuoahutFHH2XwvJdB5vZ0gNfSjI1ldP6Xg/3U/ULDA9P/ABexLne89r/5PBnci8+aQBLt96DkM3wj+D50GMepcnfbCY85zfJ//8QAShEAAQIEAgYFBwkECAcAAAAAAgEDAAQREiEiBTEyQUJREzNAYXEGUmKBkcHwEBQjgoOhorGyJDRykhUgMETR0uHxRVBTVGNzwv/aAAgBAgEBPwD+0og4QGjZ10bhY/KCkJwNcq5BMvBthb25vbCNHNi7PNiUKtIIouRd0TUszMt0Juh+fDOinCc+l2P1QWjZTzPxQejGOEziZdSWmTZINmBITG4e0N7aRon9/b+t+UKUGcX0i+LoVYONOh9My754fpiRXIadob20hh5GHelU7LILylG6jXSHw7tr/RIlNLNzO1lOL7hqkAUKsJBrGm+rZ/jiR2T7Q3tRPkgsO1joOlWjnSAYOdxZS3b01Q2yg2PNH/my6/ZSNGzxlkeC0vlVYN2NNaWkksDp7yDzM0aJnGpv50jXBZ7+0N7cTa0aNVO2G0RsKAblvp5stMMa92qGgQ3LyU/08sKJ3pBzMuD7CtHsuCDmZPVvwhk72QKKxNzTcu2ZmdgBGl9Pvz5G0ydkv+IvHugipqjyV/v/ANl7+0N9YkTaVaNL/wAN33RIS3TWNC8/m8PHFaY4jGlJVW871gj3UId/dD4gjTaLeLQ/W2eaV7o0aX7G3WHXhbG4o0/pkp95WWj/AGcPxQpwqx5Kap77L39ob6xInCEGzM9kYkgQ0Mhc6VrMOT70p30iaJlNHn+0bXH/AA4KO6G20IgQNjN+LHdhSJUehlwFfi7GPKnS5APzNo85bcKvyLHkqv7/APZe/tDfWJE4N7RjCTz8kROtHZaBX+lb7lhdIHN2Dd9fh37tdY0fKt0w2f1f6RMvC004ZbIRNzBzMy+8e0XyJCpHkpsz32Xv7Q31kPajhQEsCinyaTdVuQfWvwWEVzQny+SyUSe+y9/aG+sSHdR/1NLtPvSVjTJl9JwR/Rk//wBscFKTDOZxhwYJYqS4R5Lap77L39ob6xIe4/kUrdqJ/S3zRs+hZ6V3Y9Hdr3omMBNaUnMFmrAzHsp1dK15rCvqDptpNPmXBYO1jhDbOmkaBwDynuP7omQZM7Jhix3/AKgedy5Q8wTRY5wjyX/v32Xv7Q31iQ9qOFyjcUPzHzg2qhYKHkvy3Yoi4VxpEmDKnPOmF9gX+cJYe3CHURWAOyhjk84e4a96JGhUA5wCcBsuP+K2lBSBnkYQxQDHIP1cFrrSJpGZ+8mn7C2bOLX4JAukydhZw+PujyeaFtZ0h2Ts9/aG+sh3UcO3TB2hsD5nCQrDzIE2YjZ84ABoeGzXZWqJlrEm87IPmRZC2DvHwrWlNUTstegPyx9K0e2nm4axStYmGXmsq1hHNIvGCIeb+bZTfHSPBth60G3ZWnPuhREiynfHkyRUnm+EFCz7+0N9YkTZILTqqdsSjLxGaGFqbIOYZfVz1bofnpKUIVGbUrzHOZN7NUTx3xpPR5ugM4a3NN25EqJFq11rDgG0RggUt/mLx8Y+ezVbXMwf7pri8rARXso25LfFIvdVhW7ALlfS3eq7qYwTZpm2PjujyU/4h4tfkvaGttIfAnBMEC6LFlWjVQuQW8lpWldWlME561jTUuQgCi2bjV5GAXXZqUpRU1VSJPSzaIDTjJo21dffxCWvCmK4wrATAm8Fhcj9Iaa8U5wTJ5f/AGfHqgFVuw9o/wDesA+Lw0MLPjnDxCJhdxR5N1RJ6v8A4vf2hrbSG1VXgRBibucEwcZuZRu+pFxEuCZaYJE04dGVezkFp+btLs0w5RMygTLz7gDZao8xK0V5qkMAANgBjYWaAZQbD6E7vXwrgWCa+cMaCGZE3TNsj6TzlIbe7VzgfJ3R1akFp+u2NM6GSVc2/osvP1+yPJxQUZsR1h0fPv56+0N9YkCgKZIezmvy3Zd+CRMuAjTTQMuC16rfDBYmhsIWhzfSfqpTXuhJNkw6Qsvszb/VgsUBxw7WQwtD0c0AIN0VBt2tj0tcOzRihhfcRePh+SRoyfeB9lkjvEwL3L3URESNNttlK3Fntb2MLteGKxoBBH52iDvD39oa2wh2qavj2Qjxk30pBkHb1e3wpE+w8ioggllnuw584dq2Jpf/AJfupziTJsCwO+/0vHCCKmzEyJKdVzfHOJR585plADNl+O/CNJzL96gmUhbGw8LRL1oseTyqYTS37x4bV39oa6wInKdHiducfzRYMAeI23dno/O+8qYw4pGFiiBFftjsiQrRccKVgxEgUTe63Pvt8IFopZQQ8/s7/VjDThnwQTTT6EqvWjl4rfvotERUiVlEkemQ89532BlyjXw1xNC4ZALiAN7lv8I489UaLbVsH1XmnaGttImcANbvj1QyqXtKjR5m7/rFrTxqkTIK6rTPE1ncO3iLh1qtURKrE3agMq2Vt1tllfXjDkso35ajf/Ldu70gBNkEUhO/j9kSrLjaI49qVsuG7Zry1JDikYVQ9r8Q0onNN0KhqpoV+b6xZq7++JJOjV5rzO0NdYEPlYBrDpdGfSJxW8tmtVjoVfTphMyLMeXxVKpuWkWKZmKKdvAA154JrTBKQ7ebeZAvzWZtq1FrqiSkQcbBXT4Bz7XJN3esOg/e0DeRlG/5vCu5Vi8SQFQLMn4YVwbTt4v/AK5U3xIto2L6Vz8f+CeHaGusCJvqzhtymUtmFEhIFHV6UGKuECrmEXO7q8KouKLugVeJ8BNMm68l4fYlMcEhhwiSXbFzMOb8svhjD8waNmiGZWXbAraQimK0VK+CwBuTV9QsDzDzcl14YLFwt5Q2/PiTAhbMl4+0N7YQ8HSCYwQmJWkkALyam4RsyQKs5oGVcEQETyj/AI1gJIh47S88MpaoCRaErlWFlwXXCSzI8HaUWkFauKf8jXa7L//EAEgRAAECBAMEBgQKCAQHAAAAAAIBAwAEERIhIjIFEzFBBkBCUVJhFDNicUVygYKDoaLBwvAQIyQ1Q5GxsgeS0eEVIDBQU2PS/9oACAEDAQE/AP8AqIqlj2Ie6SbDl3Dacnkv9kSL6xRUhvbuyHNO0Jf5x2/1pDc1LPUVp9sviGhdec0HHSKYcldhzbjeskEP8yoiwiQDd0W8qKkbL2nObMeAm3FVvttquUonulsqEr+yZ5g+RDo+NDXSfbA4k6h+8E/CiQx0r2h25dg/5xs67aMizNB2ux7XBYISArS6w76s46WfuCY+OH9yQAwyFI3N/CNzCN9qACmZYYTNHQ94llJlnwHf/mieT9YJdYd9WcbVY9J2cbVgHp117/KGuj7WdHQY8WQVHLE3sLceqOAaUCtWH/CMCFIO1cEhgKR0TWjzw/8Arif1B1hzRBIqtDb+cYE22VuHdneF3Mc2EK6SCbTvZyezmjaMi243eyd1ng/NcVhVqtP0AFSpEtLqSerjozsDaI3veiuAJhkM8v8AKsbYkXpNWN727vs06w7oh1FVinii83zzst3ex4vdTDjxg3UCrQg3/dpSvGGZd3dPI4HYI/z3xOMExNvJFBWNk7MenXgaabvM9EdHOh8nsdoHppvfTf2R90KtY6X/AAd9L93WHdCxMLSXDJdp7VvPvh+YVgTedZD683LDHDAo2bMtvCYy95H261Hu8+USzlxmWQ3b7vCI3edK846QBbtGqeAYlJJyZfbEW9cdEejDWxJVJh4P2o/s+UGUXR0x+Dvpfu6w76tYeAjlxFMbrfZ5/dEyqNmAOAbDhW6/qWuPBYkReLaIEsvk8GHyd6wDbqnmBtCP8OFOFcY2kYzm0XjDMOgPatwr8tI6AdHR/eT7eUfV/eUKtYVIVI6YfB30v4esO6IRSQMP/qHJRqeDcPs3/h+L5w1sj0UTJoL8/b1f6LG0JiYl27Vb/aDD5o3efNYkJVx99psW1uNbPnRs+WCRkpeWb0tN2RX9C6o6YfB/0v4esO6IlkzBG7G66LBiid0bLZA9oylUT1l/+XGEKK/p6ZJ+7/pfw9Yd0RLag/5NkzMszPITrwDkPWUJtjZycZkP5QxPScx6qYaP56QqxUo6Y/B/0v4esO6IltTf6CMQhiWcm3AEjtEoWWkJEQd3ampWgHtOEtPk4wEuatA45JNiJZzuLSNIcf2MrxtLS4ewGrz7uCxJzU0yAGy/vWU/huFdl9/GkSc61ODwof8A446ZfB/0v4esO6IltTcGduUYab3YESneVue3N58aYRtFwy9FBpDFCf1iVpD7qInGmMSqVdJoe1nqpZuGKonFKd8beN0NmkjJuVILLxplurmLnB7KWaRh0jAjvLHHNaqU4KsSgzGzUAH2rx1mZ1tuppFKrVYJi5G3Wshx0mmVfSQEtYX3/V1h3RDC0sWEcEMxlq+1ATK35hMGjPR7VF0UVcaQ+03OS4NCNRLMB39qmHGvGuEbImVocvMhujA6Att2Fe+2lUgRZmhU26JVzvuKg8vLGCk1YFwkcsbv7XDin190Mk+Sna5eCa0XNgSItIScbNmhZD/tjpJaXoTo9u+/4w06w7ohhFWxEiemmwavbz0zWeK3ClaRLNTk3eLrVggBWNgJaiRaeWFOMbJnGxMtniCi67orQhH3URIkwa3AuKfvDsjbwpw+WGdny54gGfVXVbjXguGMDKirr6LLubzNn1Zv91hJPPvEyXZMmS/giY1xh6XBxLt3aXsRt86pLN00bzrDuiEcFplTU7RHtw68c6+DQP2GTme7MJDRVuxXu4JGx3BdN68wF9AADOy24a1rdXjRYLZUy4UybboC5lsy6XBSqLdXBMIl51xhUZcQxPmBaMyqmGC170SFGolRxvJb/t5V74UMDBHtPYvp3UgmXWyqOejn9aDSgw2KsnVtxu0+X5pTnSOlNN5JlTVd1h3RE+IFs15CO3+7jEgAsuNuszFswrlmUf4YpieeuKxs6RaJXgA3KZg8V1qYFdj3xuDl2wBScMzTOYU1UrywgvSlM1DsWrbp7lT6odm3HFNsnhRrL3XfrExFUVeC8uETnS97Z7gMtyz4sWeEBIi0pWt1cUgv8QNsgptgdzWTWKXZY6PdJ/8Ai8md/rhMr+Aj3onFVxjpCpKsnWva/omPWHdET6uDIqTesbbM1uauGOEbNaf37zzjze/H3+ePBaYpGzXkMUfOgrZ84hFVquHBcYd2jNg6jKfrfHxqONnHgsUcZZBTmTvW7Vqyrz+RYcveFRcLe6dXs84YkWCQCJiggfZpd30RO+qx0l2LKvMTMyDYNOAfl5p51VVWOiBuBNG0Bbq5zXiIkNFRcEpHSBSIpTPUKOf17+fWHfVwYXsfn74VlsXgaA7HSus4+dU761jYc1KGpoRBvSPwKJENUrThwpAWvvgatWePFbspU7VY2gLioiKFtns6hKmaBDvs1fnurEm4CMmCBaKhr8MbSl5QJJ1Zk/1Wa4AHVjh3UovGNiyUruHXVLU44VlqiRD7kXjjG3MpSwcqEqZrtVOsO6FhlFJuiBdkKBN4VuaPNvO2NvJcBXBKpEqTbLyPg8YjZoLUQklaUzVthuYH0i5uXu3BiPK742KQcwk4tWzsuQq5Fry+XDvhxlGk9dSv2ccIWZdl1aRGrioXK7T3JVMVRYntontdZdWslgboDPPmcoi3UrwWJQ222CIDMhALtS5i5rROPCNoOi8YU7KdYd0LDaEoYDd/L74mm1Nl1DdDI5Z7NOR+5EKNnHuvS3i/jZGw7KCP3KqxI3Kkxe0C7tsiNwrc3vTlSuEMzKKTa701KwfpKcVpyXlSH3G3zWwgQBS0PaxjaU2w8osSoXKjg9u31lK8aVWJdAR0EIAJA+yVUVeNFXjAbhAClmX2bRuGicOVImFVxGnU0n7+zy7sOsO6FiWG+wYKXVAWiJYN3eWa2ie5YGablz3ahaI2hYQZbaVovvWGjQJdq8wvG03DwG61OWC98SjrIPUFwzutvC3xKlOONUpG1ttPSxOiwzlvLIWXvWmfjgkMHKG268+W9mFc4abPNac0RIZA2SeTfX2no9ru71qnOEaI3G00W+LNbgvGqJVInDNxW1XR2E+9fNesO6FiS1BD8ujwwcvgaabvDq8/5qsAQNNPCnrHALTUcxc0WiwPo7DBEHrfZFM11F40Va4UVYmAHeTLht270LQt05a499eMSco0bjJK2DV6DfeWYSrREqipivNIGXblLVQrz03hlLnTDHGkC2TthmFvsXROHc5aPY6w5oOJct3YsC62Q3IcGcuXFyHW2F4H8f2oRG1I1JMxf6Uw7oJWlollw+A8w8Y9IVBtBED5ywj5JmTXCzL5dvrKpWAuTBf+xp1X/9k=;clipPath=inset(0% 33.33% 0% 33.33%);" vertex="1" parent="1">
          <mxGeometry x="531.67" y="410" width="76.67" height="172.5" as="geometry" />
        </mxCell>
        <mxCell id="Hc-uTtx_4E3Jcy8ZUbmm-6" value="" style="shape=image;verticalLabelPosition=bottom;labelBackgroundColor=default;verticalAlign=top;aspect=fixed;imageAspect=0;image=https://icons.veryicon.com/png/o/miscellaneous/medium-thin-linear-icon/signal-28.png;rotation=-45;" vertex="1" parent="1">
          <mxGeometry x="460" y="440" width="60" height="60" as="geometry" />
        </mxCell>
        <mxCell id="Hc-uTtx_4E3Jcy8ZUbmm-7" value="&lt;font style=&quot;font-size: 14px;&quot;&gt;Samsung Galaxy A23 5G&lt;/font&gt;&lt;div&gt;&lt;font style=&quot;font-size: 14px;&quot;&gt;&lt;div style=&quot;font-size: 12px; text-wrap: wrap;&quot;&gt;(Cloud 10.0.100.0/24)&lt;/div&gt;&lt;div style=&quot;font-size: 12px; text-wrap: wrap;&quot;&gt;(Edge 10.0.101.0/24)&lt;/div&gt;&lt;/font&gt;&lt;/div&gt;" style="text;html=1;align=center;verticalAlign=middle;resizable=0;points=[];autosize=1;strokeColor=none;fillColor=none;fontStyle=1" vertex="1" parent="1">
          <mxGeometry x="480" y="582.5" width="180" height="60" as="geometry" />
        </mxCell>
      </root>
    </mxGraphModel>
  </diagram>
</mxfile>
